<svg width="412" height="173" viewBox="0 0 412 173" fill="none" xmlns="http://www.w3.org/2000/svg">
<rect x="114" y="2" width="168" height="171" rx="84" fill="#FFBE55"/>
<rect y="2" width="168" height="171" rx="84" fill="#FFBE55"/>
<rect x="244" y="2" width="168" height="171" rx="84" fill="#FFBE55"/>
<path d="M85.8727 118.767C77.8927 118.797 71.4971 117.321 66.6859 114.339C61.8744 111.297 59.4569 106.656 59.4334 100.416C59.421 97.1165 59.9815 94.5944 61.115 92.8501C62.2484 91.1058 63.9252 90.2295 66.1451 90.2212C67.7651 90.2151 69.0867 90.6301 70.1098 91.4662C71.133 92.3024 71.6471 93.3805 71.652 94.7005C71.6565 95.9005 71.5705 96.9508 71.3939 97.8515C71.3948 98.0915 71.3364 98.5117 71.2186 99.1121C71.1609 99.7123 71.1332 100.342 71.1357 101.002C71.1459 103.702 72.5034 105.707 75.2084 107.017C77.9733 108.327 81.8158 108.972 86.7358 108.954C91.8357 108.935 95.8223 108.02 98.6955 106.209C101.568 104.338 102.999 101.753 102.986 98.4526C102.979 96.4126 102.312 94.6751 100.987 93.2401C99.6611 91.7451 98.0065 90.5213 96.0229 89.5687C94.0391 88.5562 91.2445 87.3367 87.6391 85.9103C83.0123 84.1277 79.2259 82.4319 76.2799 80.823C73.3938 79.2138 70.8956 77.0332 68.7852 74.2811C66.7346 71.4688 65.7015 67.9927 65.6859 63.8527C65.6697 59.5327 66.7952 55.6885 69.0626 52.3199C71.3899 48.9511 74.7101 46.3286 79.023 44.4524C83.396 42.5759 88.5225 41.6266 94.4024 41.6045C98.7824 41.588 102.805 42.2329 106.47 43.5391C110.135 44.7853 113.052 46.7244 115.222 49.3562C117.452 51.9879 118.574 55.2237 118.588 59.0636C118.603 62.8436 118.043 65.6957 116.91 67.62C115.778 69.5443 114.101 70.5106 111.881 70.5189C110.321 70.5248 109 70.0498 107.916 69.0939C106.892 68.1377 106.378 66.9996 106.373 65.6796C106.369 64.5396 106.455 63.4893 106.631 62.5286C106.804 60.728 106.89 59.5876 106.888 59.1076C106.879 56.5877 105.642 54.6723 103.177 53.3616C100.712 52.0508 97.6493 51.4024 93.9893 51.4161C88.8294 51.4355 84.873 52.4104 82.1203 54.3408C79.4273 56.2109 78.0872 58.856 78.1001 62.276C78.1087 64.556 78.806 66.5034 80.1921 68.1182C81.6382 69.7327 83.4132 71.0761 85.5173 72.1481C87.6213 73.2202 90.5662 74.4992 94.3518 75.9849C98.9187 77.8278 102.585 79.494 105.351 80.9836C108.116 82.4732 110.464 84.5044 112.394 87.0771C114.383 89.6497 115.385 92.8259 115.4 96.6059C115.426 103.686 112.747 109.156 107.361 113.016C102.035 116.816 94.8726 118.733 85.8727 118.767ZM221.186 97.4679C221.966 97.465 222.567 97.8227 222.99 98.5411C223.473 99.2593 223.716 100.248 223.721 101.508C223.73 103.848 223.167 105.711 222.032 107.095C219.165 110.586 216.265 113.297 213.333 115.228C210.4 117.099 206.923 118.042 202.903 118.057C198.463 118.074 194.828 116.797 191.999 114.228C189.169 111.598 186.513 107.528 184.033 102.018C182.218 98.0645 180.707 95.1302 179.5 93.2147C178.352 91.239 177.207 89.8633 176.064 89.0876C174.921 88.2519 173.479 87.7473 171.738 87.5739L170.773 94.2376C169.546 102.822 167.109 109.011 163.463 112.805C159.877 116.599 154.905 118.507 148.545 118.531C144.405 118.547 140.711 117.571 137.463 115.603C134.276 113.575 132.046 111.003 130.774 107.888C130.35 106.81 130.136 105.641 130.131 104.381C130.124 102.581 130.539 101.019 131.374 99.6958C132.209 98.3727 133.286 97.7086 134.606 97.7036C135.386 97.7007 136.047 97.9082 136.588 98.3262C137.13 98.6842 137.642 99.3422 138.126 100.3C139.999 103.773 141.628 106.197 143.013 107.572C144.458 108.947 146.231 109.63 148.331 109.622C150.731 109.613 152.767 108.525 154.439 106.359C156.17 104.133 157.388 100.738 158.091 96.1753L159.318 87.6206L157.878 87.626C156.498 87.6312 155.417 87.2453 154.634 86.4682C153.851 85.6912 153.457 84.6126 153.452 83.2326C153.446 81.6727 153.831 80.4412 154.608 79.5383C155.444 78.5751 156.462 78.0913 157.662 78.0868L160.632 78.0756C161.041 75.134 161.334 73.0929 161.509 71.9523L164.223 51.6919C162.663 51.5178 161.192 51.4333 159.812 51.4385C154.712 51.4577 150.846 52.3722 148.212 54.1822C145.579 55.9321 144.269 58.457 144.281 61.757C144.287 63.257 144.441 64.4864 144.745 65.4453C145.108 66.3439 145.562 67.3622 146.106 68.5002C146.348 68.9793 146.47 69.5188 146.472 70.1188C146.477 71.4388 145.852 72.6112 144.596 73.6359C143.399 74.6004 142.051 75.0855 140.551 75.0911C138.631 75.0983 137.218 74.2637 136.312 72.5871C134.5 69.4138 133.587 65.9973 133.573 62.3373C133.559 58.5573 134.566 55.1035 136.594 51.9758C138.682 48.848 141.823 46.3461 146.016 44.4703C150.209 42.5346 155.395 41.555 161.575 41.5318C164.275 41.5216 166.736 41.6624 168.957 41.954C171.238 42.2454 173.73 42.8061 176.433 43.6359C179.376 44.5248 180.853 46.1993 180.862 48.6593C180.874 51.9593 179.471 53.6146 176.651 53.6252L173.232 77.8482C180.249 77.1018 185.938 74.0804 190.298 68.7839C194.718 63.4273 198.38 56.1834 201.286 47.0524C201.82 45.3704 202.715 44.077 203.971 43.1723C205.288 42.2673 206.936 41.8111 208.916 41.8037C210.596 41.7974 211.888 42.1825 212.791 42.9591C213.753 43.6755 214.237 44.7237 214.243 46.1037C214.244 46.5237 214.127 47.2141 213.89 48.175C210.928 58.0862 206.667 65.9623 201.109 71.8033C195.551 77.6442 189.476 81.5371 182.883 83.4819C185.165 84.0133 187.028 84.8163 188.472 85.8909C189.976 86.9653 191.241 88.3105 192.267 89.9267C193.293 91.4828 194.471 93.6684 195.802 96.4834C197.677 100.436 199.427 103.25 201.054 104.924C202.68 106.538 204.573 107.34 206.733 107.332C208.653 107.325 210.48 106.688 212.216 105.422C213.951 104.095 216.132 101.867 218.761 98.7371C219.477 97.8944 220.286 97.4713 221.186 97.4679ZM237.058 69.598C234.538 69.6075 232.646 69.0446 231.382 67.9094C230.117 66.7141 229.481 65.0665 229.473 62.9665C229.465 60.8665 230.269 59.1235 231.884 57.7374C233.558 56.2911 235.625 55.5633 238.085 55.554C240.305 55.5457 242.107 56.0789 243.491 57.1537C244.875 58.2285 245.571 59.7559 245.579 61.7359C245.588 64.1359 244.815 66.0588 243.26 67.5047C241.706 68.8905 239.638 69.5883 237.058 69.598ZM236.52 117.93C232.62 117.945 229.765 116.576 227.955 113.823C226.204 111.069 225.32 107.412 225.303 102.852C225.293 100.152 225.61 96.7013 226.254 92.4988C226.958 88.2361 227.843 84.2728 228.91 80.6087C229.442 78.6867 230.157 77.364 231.055 76.6406C231.952 75.9173 233.391 75.5519 235.371 75.5444C238.431 75.5329 239.964 76.5471 239.972 78.5871C239.978 80.0871 239.421 83.5692 238.301 89.0335C236.886 95.6388 236.183 100.112 236.192 102.452C236.199 104.251 236.444 105.631 236.927 106.589C237.411 107.547 238.223 108.024 239.363 108.02C240.443 108.016 241.79 107.26 243.404 105.754C245.019 104.248 247.17 101.87 249.857 98.6201C250.574 97.7774 251.383 97.3543 252.283 97.3509C253.063 97.348 253.664 97.7057 254.087 98.4242C254.569 99.1423 254.813 100.131 254.818 101.391C254.827 103.791 254.264 105.654 253.129 106.978C247.216 114.26 241.68 117.911 236.52 117.93ZM290.631 97.2067C291.411 97.2037 292.012 97.5615 292.435 98.2799C292.918 98.9981 293.161 99.9872 293.166 101.247C293.175 103.647 292.612 105.509 291.477 106.834C288.909 110.023 286.099 112.644 283.047 114.695C280.054 116.747 276.638 117.779 272.798 117.794C267.518 117.814 263.579 115.429 260.981 110.638C258.443 105.848 257.16 99.6426 257.131 92.0227C257.104 84.7027 258.002 76.3593 259.827 66.9923C261.712 57.6252 264.472 49.5747 268.106 42.841C271.801 36.1071 276.198 32.7305 281.298 32.7113C284.178 32.7005 286.433 34.042 288.063 36.7359C289.753 39.3696 290.608 43.1764 290.626 48.1563C290.653 55.2963 288.704 63.5837 284.78 73.0185C280.855 82.4533 275.52 91.8035 268.775 101.069C269.205 103.527 269.901 105.295 270.865 106.371C271.829 107.387 273.091 107.893 274.651 107.887C277.111 107.878 279.268 107.179 281.123 105.792C282.978 104.346 285.339 101.907 288.206 98.4758C288.922 97.6331 289.731 97.21 290.631 97.2067ZM279.352 41.6287C277.972 41.6339 276.421 44.1297 274.7 49.1163C272.979 54.1028 271.472 60.2885 270.18 67.6734C268.887 75.0583 268.194 82.141 268.1 88.9214C272.333 81.8854 275.697 74.8527 278.19 67.8233C280.684 60.7338 281.919 54.2791 281.897 48.4592C281.88 43.8992 281.032 41.6224 279.352 41.6287ZM328.986 97.0624C329.766 97.0594 330.367 97.4172 330.79 98.1356C331.273 98.8538 331.517 99.8429 331.521 101.103C331.53 103.503 330.967 105.365 329.832 106.689C327.264 109.879 324.454 112.5 321.402 114.551C318.41 116.602 314.993 117.635 311.153 117.65C305.873 117.669 301.934 115.284 299.336 110.494C296.798 105.704 295.515 99.4983 295.486 91.8784C295.459 84.5584 296.357 76.215 298.182 66.848C300.067 57.4809 302.827 49.4304 306.461 42.6967C310.156 35.9628 314.553 32.5862 319.653 32.567C322.533 32.5562 324.788 33.8977 326.419 36.5916C328.108 39.2253 328.963 43.0321 328.982 48.012C329.008 55.152 327.06 63.4394 323.135 72.8742C319.211 82.309 313.876 91.6592 307.13 100.925C307.56 103.383 308.256 105.15 309.22 106.227C310.184 107.243 311.446 107.748 313.006 107.743C315.466 107.733 317.624 107.035 319.478 105.648C321.333 104.201 323.694 101.762 326.561 98.3315C327.278 97.4888 328.086 97.0658 328.986 97.0624ZM317.707 41.4844C316.327 41.4896 314.776 43.9854 313.055 48.972C311.334 53.9585 309.827 60.1442 308.535 67.5291C307.243 74.914 306.549 81.9967 306.455 88.7771C310.688 81.7411 314.052 74.7084 316.545 67.679C319.039 60.5895 320.275 54.1348 320.253 48.3149C320.235 43.7549 319.387 41.4781 317.707 41.4844ZM350.056 119.483C346.936 119.495 344.533 118.784 342.848 117.35C341.223 115.916 340.406 114.3 340.4 112.5C340.394 110.94 340.959 109.587 342.094 108.443C343.23 107.299 344.908 106.723 347.128 106.714C347.908 106.711 348.808 106.798 349.829 106.974C350.909 107.09 351.72 107.177 352.26 107.235C352.194 105.675 351.829 104.206 351.163 102.829C350.558 101.451 349.773 100.134 348.809 98.8778C347.844 97.5614 346.939 96.4248 346.096 95.468C344.249 99.015 342.4 101.962 340.549 104.309C338.758 106.656 336.786 108.883 334.634 110.991C333.558 112.075 332.42 112.62 331.22 112.624C330.26 112.628 329.479 112.301 328.876 111.643C328.274 110.925 327.97 110.056 327.967 109.036C327.962 107.836 328.378 106.725 329.214 105.702L330.379 104.257C333.663 100.165 336.141 96.7954 337.811 94.1491C338.884 92.4051 339.956 90.331 341.027 87.927C342.158 85.5227 343.616 82.2472 345.4 78.1005C346.53 75.4562 348.895 74.1273 352.495 74.1138C354.175 74.1074 355.346 74.253 356.007 74.5505C356.668 74.8481 357 75.3268 357.002 75.9868C357.004 76.3468 356.886 76.9173 356.649 77.6982C356.412 78.4791 356.085 79.2603 355.668 80.0419C354.596 82.2059 354.063 84.0379 354.068 85.5379C354.072 86.4379 354.375 87.4268 354.98 88.5045C355.644 89.582 356.639 90.9283 357.965 92.5433C359.894 95.0561 361.342 97.2106 362.309 99.007C363.336 100.743 363.853 102.661 363.861 104.761C363.87 107.281 363.279 109.683 362.088 111.968C360.956 114.192 359.343 115.998 357.248 117.386C355.153 118.774 352.756 119.473 350.056 119.483Z" fill="white"/>
</svg>
