<svg width="589" height="444" viewBox="0 0 589 444" fill="none" xmlns="http://www.w3.org/2000/svg">
<path opacity="0.31" d="M566.835 405.028C565.689 405.046 558.638 393.968 557.287 392.434C546.242 379.875 539.616 366.076 534.636 351.065C530.841 339.621 528.01 327.464 524.921 314.637C522.833 305.985 519.471 296.316 512.184 293.587C505.094 290.938 497.458 296.432 493.101 303.514C488.737 310.597 486.543 319.186 482.816 326.75C476.053 340.459 464.083 346.204 454.185 334.153C440.051 316.938 433.683 293.462 424.718 272.465C418.213 257.222 412.763 239.374 404.565 225.317C392.064 203.892 374.917 185.616 352.123 185.616C337.67 188.184 324.941 203.232 316.318 222.025C307.703 240.819 302.671 263.18 298.389 285.479C294.799 304.183 291.649 323.093 288.734 342.1C283.315 319.195 277.675 296.459 271.572 274.116C264.961 249.917 257.659 225.807 247.518 206.443C237.377 187.078 223.949 172.798 210.469 172.896C189.693 177.624 176.289 201.724 167.499 228.43C161.738 245.939 158.944 267.149 154.861 285.649C149.244 311.132 146.298 338.854 135.505 361.162C127.952 376.771 116.339 372.793 108.513 358.762C104.194 351.02 101.15 341.815 96.3149 334.751C91.4797 327.686 83.8513 323.084 77.7182 327.535C71.4104 332.111 69.5204 343.697 68.6703 353.856C67.4102 368.939 66.3096 383.193 64.2374 396.858C63.7896 399.837 63.2886 402.78 62.7345 405.697H279.641C279.489 406.785 279.337 407.882 279.193 408.971C279.193 408.971 566.835 405.028 566.835 405.028Z" fill="#DCE6EF"/>
<path opacity="0.77" d="M480.045 370.384C479.484 383.523 467.316 406.491 456.135 405.831C444.955 405.171 438.988 381.124 439.558 367.985C440.119 354.847 452.029 289.091 463.21 289.76C474.383 290.42 480.607 357.246 480.045 370.384Z" fill="#FFBE55"/>
<path d="M457.031 405.126C457.024 405.126 457.016 405.126 457.016 405.126C456.857 405.117 456.727 404.948 456.743 404.76L462.382 298.279C462.39 298.091 462.519 297.931 462.694 297.958C462.853 297.966 462.982 298.136 462.967 298.323L457.327 404.805C457.312 404.983 457.183 405.126 457.031 405.126Z" fill="#0B4870"/>
<path opacity="0.77" d="M454.45 367.646C451.907 374.22 449.964 381.115 448.795 388.304C448.203 391.943 447.824 395.894 449.228 399.221C450.761 402.852 454.162 404.966 457.562 405.626C465.874 407.231 474.186 401.246 479.059 393.174C483.932 385.102 486.042 375.228 487.978 365.603C489.503 358.022 490.999 350.324 493.875 343.26C495.105 340.227 502.324 328.534 498.908 325.501C494.24 321.193 480.729 325.876 472.075 336.99C464.94 346.123 458.807 356.407 454.45 367.646Z" fill="#FFBE55"/>
<path d="M457.562 405.965C457.54 405.965 457.517 405.965 457.487 405.956C457.327 405.911 457.236 405.715 457.274 405.537C457.373 405.073 467.612 359.235 491.621 333.136C491.742 333.012 491.925 333.012 492.039 333.154C492.152 333.297 492.145 333.511 492.023 333.645C468.136 359.601 457.95 405.251 457.851 405.706C457.82 405.867 457.699 405.965 457.562 405.965Z" fill="#0B4870"/>
<path opacity="0.77" d="M513.224 356.827C512.366 358.638 510.757 359.868 509.292 360.832C507.493 362.027 505.572 363.071 503.713 364.087C501.329 365.39 498.87 366.736 496.593 368.413C494.938 369.635 493.466 371.018 492.228 372.499C494.179 367.289 496.464 362.741 499.151 358.673C502.688 353.321 506.316 350.61 509.952 350.61C510.036 350.61 510.119 350.61 510.203 350.619C511.326 350.654 512.199 350.985 512.799 351.591C514.036 352.831 513.983 355.221 513.224 356.827Z" fill="#FFBE55"/>
<path opacity="0.77" d="M517.277 386.502C515.842 387.706 513.937 388.01 512.267 388.152C510.203 388.322 508.085 388.304 506.043 388.295C503.417 388.277 500.699 388.25 498.035 388.625C496.092 388.901 494.255 389.41 492.6 390.123C496.259 386.395 499.978 383.425 503.887 381.106C509.034 378.046 513.3 377.422 516.586 379.251C516.662 379.295 516.738 379.34 516.814 379.384C517.816 379.982 518.484 380.713 518.81 381.57C519.463 383.3 518.545 385.441 517.277 386.502Z" fill="#FFBE55"/>
<path opacity="0.77" d="M507.713 401.112C506.521 400.916 505.451 400.024 504.563 399.168C503.47 398.115 502.422 396.947 501.413 395.805C500.115 394.351 498.771 392.844 497.299 391.56C496.221 390.623 495.105 389.865 493.997 389.312C497.306 389.472 500.335 390.043 503.212 391.042C506.992 392.353 509.36 394.396 510.263 397.107C510.286 397.17 510.301 397.232 510.324 397.295C510.582 398.142 510.62 398.874 510.445 399.48C510.081 400.72 508.768 401.282 507.713 401.112Z" fill="#FFBE55"/>
<path d="M480.508 406.232C480.357 406.214 480.212 406.081 480.212 405.884C480.212 405.599 480.66 377.342 509.641 353.66C509.777 353.553 509.96 353.589 510.051 353.749C510.142 353.91 510.111 354.124 509.975 354.231C481.245 377.707 480.797 405.608 480.797 405.884C480.804 406.072 480.675 406.232 480.508 406.232Z" fill="#0B4870"/>
<path d="M480.508 406.232C480.463 406.232 480.425 406.223 480.379 406.197C480.228 406.116 480.167 405.911 480.235 405.733C480.326 405.51 489.556 382.97 513.762 382.97C513.929 382.97 514.058 383.122 514.058 383.318C514.058 383.514 513.929 383.666 513.762 383.666C489.943 383.666 480.858 405.804 480.774 406.027C480.729 406.152 480.622 406.232 480.508 406.232Z" fill="#0B4870"/>
<path d="M508.259 398.249C508.199 398.249 508.138 398.223 508.085 398.178C498.506 389.687 493.792 389.936 493.754 389.945C493.587 389.963 493.45 389.811 493.435 389.624C493.428 389.437 493.549 389.267 493.708 389.249C493.906 389.223 498.635 388.937 508.442 397.625C508.571 397.741 508.601 397.955 508.502 398.116C508.442 398.196 508.351 398.249 508.259 398.249Z" fill="#0B4870"/>
<path d="M137.478 364.756C133.265 359.039 127.929 354.115 126.244 346.899C125.015 341.628 125.986 336.053 126.464 330.621C126.943 325.189 126.776 319.177 123.785 315.003C121.318 311.56 117.424 310.061 113.682 309.116C109.94 308.17 106.031 307.573 102.706 305.334C97.3093 301.695 98.3871 295.514 95.4875 290.09C92.2388 284.007 84.6711 276.238 78.1888 280.279C71.3269 284.56 72.4124 297.556 76.9743 303.291C80.0029 307.1 83.8816 310.748 84.3295 315.939C84.9974 323.744 77.3918 330.773 79.4791 338.229C81.0276 343.733 86.9254 345.624 89.8478 350.298C92.7322 354.927 92.1477 361.402 90.455 366.781C88.7547 372.159 86.0829 377.128 85.0278 382.72C82.8645 394.173 90.5157 402.085 99.2296 404.645C107.238 406.99 124.506 405.884 124.506 405.884C130.67 403.351 137.501 396.992 140.894 390.034C143.452 384.781 143.809 378.127 141.828 372.534C140.803 369.662 139.239 367.138 137.478 364.756Z" fill="#FFBE55"/>
<path d="M118.563 405.938C118.411 405.938 118.274 405.795 118.267 405.608C115.101 346.944 85.9159 293.355 85.6198 292.82C85.5287 292.659 85.5667 292.445 85.7109 292.338C85.8475 292.231 86.0297 292.276 86.1208 292.445C86.4168 292.98 115.686 346.73 118.866 405.563C118.874 405.751 118.752 405.92 118.593 405.929C118.578 405.938 118.57 405.938 118.563 405.938Z" fill="#0B4870"/>
<path d="M59.6071 364.828C60.0626 364.373 60.7229 364.123 61.5731 364.096C61.6338 364.096 61.7021 364.096 61.7628 364.096C64.503 364.096 67.2508 366.148 69.9302 370.188C71.9645 373.266 73.6875 376.709 75.1601 380.642C74.2264 379.518 73.1106 378.475 71.8582 377.556C70.1428 376.289 68.2755 375.272 66.4765 374.282C65.0723 373.515 63.6225 372.721 62.2638 371.821C61.1556 371.089 59.9411 370.153 59.2883 368.788C58.7114 367.575 58.6735 365.764 59.6071 364.828Z" fill="#FFBE55"/>
<path d="M55.068 387.492C55.3109 386.85 55.8195 386.297 56.5785 385.842C56.6317 385.806 56.6924 385.78 56.7455 385.744C59.2276 384.362 62.4536 384.834 66.3475 387.144C69.3078 388.902 72.1163 391.149 74.8868 393.968C73.6344 393.424 72.2453 393.04 70.7804 392.835C68.7613 392.55 66.7119 392.568 64.7231 392.585C63.1747 392.594 61.5731 392.612 60.017 392.478C58.7494 392.371 57.3148 392.139 56.2294 391.23C55.2578 390.427 54.567 388.804 55.068 387.492Z" fill="#FFBE55"/>
<path d="M61.3833 401.05C61.2467 400.595 61.277 400.042 61.4744 399.4C61.4895 399.355 61.5047 399.302 61.5199 399.257C62.203 397.206 63.9944 395.663 66.856 394.672C69.0269 393.914 71.3193 393.486 73.8241 393.361C72.9816 393.781 72.139 394.351 71.3268 395.065C70.211 396.037 69.1939 397.17 68.2147 398.276C67.4481 399.132 66.6587 400.024 65.8313 400.818C65.1634 401.46 64.3512 402.138 63.4479 402.29C62.6509 402.406 61.6641 401.978 61.3833 401.05Z" fill="#FFBE55"/>
<path d="M84.0182 406.232C83.8588 406.232 83.7222 406.081 83.7222 405.884C83.7222 405.67 83.3654 384.602 61.6945 366.897C61.5579 366.79 61.5275 366.567 61.6186 366.415C61.7097 366.255 61.8994 366.219 62.0285 366.326C83.9726 384.254 84.3142 405.67 84.3142 405.884C84.3218 406.072 84.1852 406.232 84.0182 406.232C84.0258 406.232 84.0258 406.232 84.0182 406.232Z" fill="#0B4870"/>
<path d="M84.0258 406.232C83.9119 406.232 83.8056 406.161 83.7601 406.036C83.6918 405.866 76.8376 389.178 58.8784 389.178C58.7114 389.178 58.5824 389.026 58.5824 388.83C58.5824 388.634 58.7114 388.482 58.8784 388.482C77.2247 388.482 84.2231 405.572 84.2914 405.742C84.3598 405.92 84.299 406.125 84.1472 406.205C84.1093 406.214 84.0637 406.232 84.0258 406.232Z" fill="#0B4870"/>
<path d="M63.038 400.194C62.9469 400.194 62.8634 400.149 62.8027 400.051C62.704 399.899 62.7268 399.676 62.8634 399.56C70.2945 392.969 73.9 393.201 74.0518 393.21C74.2112 393.227 74.3403 393.388 74.3251 393.584C74.3099 393.772 74.1733 393.932 74.0063 393.905C73.9683 393.905 70.4312 393.727 63.2202 400.113C63.1595 400.176 63.0987 400.194 63.038 400.194Z" fill="#0B4870"/>
<path d="M376.89 391.515H168.774C164.189 391.515 160.462 387.135 160.462 381.748V52.6158C160.462 47.2284 164.189 42.8489 168.774 42.8489H230.978V45.5247H168.774C165.449 45.5247 162.739 48.709 162.739 52.6158V381.748C162.739 385.655 165.449 388.839 168.774 388.839H376.89C380.215 388.839 382.925 385.655 382.925 381.748V52.6158C382.925 48.709 380.215 45.5247 376.89 45.5247H314.701V42.8489H376.89C381.475 42.8489 385.202 47.2284 385.202 52.6158V381.748C385.202 387.126 381.475 391.515 376.89 391.515Z" fill="#FFBE55"/>
<path d="M368.207 374.211H177.457C175.841 374.211 174.527 372.668 174.527 370.768V63.5958C174.527 61.6959 175.841 60.1528 177.457 60.1528H368.207C369.824 60.1528 371.137 61.6959 371.137 63.5958V370.768C371.137 372.668 369.824 374.211 368.207 374.211Z" fill="#F2F2F2"/>
<path d="M315.688 69.2687H229.976V36.3109H254.79C254.957 24.7868 262.987 15.4658 272.832 15.4658C282.677 15.4658 290.708 24.7868 290.875 36.3109H315.688V69.2687V69.2687ZM232.253 66.5928H313.411V38.9867H288.499L288.575 37.2207C288.583 37.0423 288.598 36.855 288.598 36.6677C288.598 26.4547 281.523 18.1417 272.832 18.1417C264.141 18.1417 257.067 26.4547 257.067 36.6677C257.067 36.855 257.082 37.0423 257.089 37.2207L257.165 38.9867H232.253V66.5928Z" fill="#FFBE55"/>
<path d="M272.832 49.164C266.972 49.164 262.198 43.5625 262.198 36.6677C262.198 29.7729 266.965 24.1714 272.832 24.1714C278.7 24.1714 283.466 29.7729 283.466 36.6677C283.466 43.5625 278.692 49.164 272.832 49.164ZM272.832 26.8562C268.225 26.8562 264.475 31.2625 264.475 36.6766C264.475 42.0908 268.225 46.4971 272.832 46.4971C277.44 46.4971 281.189 42.0908 281.189 36.6766C281.189 31.2625 277.44 26.8562 272.832 26.8562Z" fill="#FFBE55"/>
<path d="M572.149 443.159H16.5234C7.71845 443.159 0.583374 434.775 0.583374 424.428C0.583374 414.081 7.71845 405.697 16.5234 405.697H572.149C580.954 405.697 588.089 414.081 588.089 424.428C588.089 434.775 580.954 443.159 572.149 443.159Z" fill="#D3D3D3"/>
<path d="M232.155 147.342H199.311V108.747H232.155V147.342ZM200.07 146.45H231.396V109.639H200.07V146.45Z" fill="#0B4870"/>
<path d="M216.814 138.833L205.96 128.816L207.835 126.015L216.609 134.105L235.608 112.6L237.711 115.169L216.814 138.833Z" fill="#0B4870"/>
<path d="M351.72 119.896H247.176C246.493 119.896 245.939 119.245 245.939 118.442C245.939 117.64 246.493 116.989 247.176 116.989H351.72C352.404 116.989 352.958 117.64 352.958 118.442C352.958 119.245 352.404 119.896 351.72 119.896Z" fill="#0B4870"/>
<path d="M351.72 126.301H247.176C246.493 126.301 245.939 125.649 245.939 124.847C245.939 124.044 246.493 123.393 247.176 123.393H351.72C352.404 123.393 352.958 124.044 352.958 124.847C352.958 125.649 352.404 126.301 351.72 126.301Z" fill="#0B4870"/>
<path d="M351.72 132.696H247.176C246.493 132.696 245.939 132.045 245.939 131.242C245.939 130.439 246.493 129.788 247.176 129.788H351.72C352.404 129.788 352.958 130.439 352.958 131.242C352.958 132.045 352.404 132.696 351.72 132.696Z" fill="#0B4870"/>
<path d="M351.72 139.1H247.176C246.493 139.1 245.939 138.449 245.939 137.646C245.939 136.844 246.493 136.192 247.176 136.192H351.72C352.404 136.192 352.958 136.844 352.958 137.646C352.958 138.449 352.404 139.1 351.72 139.1Z" fill="#0B4870"/>
<path d="M232.155 208.04H199.311V169.445H232.155V208.04ZM200.07 207.148H231.396V170.337H200.07V207.148Z" fill="#0B4870"/>
<path d="M216.814 199.53L205.96 189.514L207.835 186.713L216.609 194.803L235.608 173.298L237.711 175.867L216.814 199.53Z" fill="#0B4870"/>
<path d="M351.72 180.594H247.176C246.493 180.594 245.939 179.943 245.939 179.14C245.939 178.337 246.493 177.686 247.176 177.686H351.72C352.404 177.686 352.958 178.337 352.958 179.14C352.958 179.943 352.404 180.594 351.72 180.594Z" fill="#0B4870"/>
<path d="M351.72 186.998H247.176C246.493 186.998 245.939 186.347 245.939 185.544C245.939 184.742 246.493 184.091 247.176 184.091H351.72C352.404 184.091 352.958 184.742 352.958 185.544C352.958 186.347 352.404 186.998 351.72 186.998Z" fill="#0B4870"/>
<path d="M351.72 193.394H247.176C246.493 193.394 245.939 192.742 245.939 191.94C245.939 191.137 246.493 190.486 247.176 190.486H351.72C352.404 190.486 352.958 191.137 352.958 191.94C352.958 192.742 352.404 193.394 351.72 193.394Z" fill="#0B4870"/>
<path d="M351.72 199.798H247.176C246.493 199.798 245.939 199.147 245.939 198.344C245.939 197.541 246.493 196.89 247.176 196.89H351.72C352.404 196.89 352.958 197.541 352.958 198.344C352.958 199.147 352.404 199.798 351.72 199.798Z" fill="#0B4870"/>
<path d="M232.155 268.737H199.311V230.142H232.155V268.737ZM200.07 267.845H231.396V231.034H200.07V267.845Z" fill="#0B4870"/>
<path d="M216.814 260.228L205.96 250.211L207.835 247.41L216.609 255.5L235.608 233.995L237.711 236.564L216.814 260.228Z" fill="#0B4870"/>
<path d="M351.72 241.292H247.176C246.493 241.292 245.939 240.64 245.939 239.838C245.939 239.035 246.493 238.384 247.176 238.384H351.72C352.404 238.384 352.958 239.035 352.958 239.838C352.958 240.64 352.404 241.292 351.72 241.292Z" fill="#0B4870"/>
<path d="M351.72 247.696H247.176C246.493 247.696 245.939 247.045 245.939 246.242C245.939 245.439 246.493 244.788 247.176 244.788H351.72C352.404 244.788 352.958 245.439 352.958 246.242C352.958 247.045 352.404 247.696 351.72 247.696Z" fill="#0B4870"/>
<path d="M351.72 254.091H247.176C246.493 254.091 245.939 253.44 245.939 252.637C245.939 251.834 246.493 251.183 247.176 251.183H351.72C352.404 251.183 352.958 251.834 352.958 252.637C352.958 253.44 352.404 254.091 351.72 254.091Z" fill="#0B4870"/>
<path d="M351.72 260.495H247.176C246.493 260.495 245.939 259.844 245.939 259.042C245.939 258.239 246.493 257.588 247.176 257.588H351.72C352.404 257.588 352.958 258.239 352.958 259.042C352.958 259.844 352.404 260.495 351.72 260.495Z" fill="#0B4870"/>
<path d="M232.155 329.435H199.311V290.84H232.155V329.435ZM200.07 328.543H231.396V291.732H200.07V328.543Z" fill="#0B4870"/>
<path d="M216.814 320.926L205.96 310.909L207.835 308.108L216.609 316.198L235.608 294.693L237.711 297.262L216.814 320.926Z" fill="#0B4870"/>
<path d="M351.72 301.989H247.176C246.493 301.989 245.939 301.338 245.939 300.535C245.939 299.733 246.493 299.082 247.176 299.082H351.72C352.404 299.082 352.958 299.733 352.958 300.535C352.958 301.338 352.404 301.989 351.72 301.989Z" fill="#0B4870"/>
<path d="M351.72 308.394H247.176C246.493 308.394 245.939 307.742 245.939 306.94C245.939 306.137 246.493 305.486 247.176 305.486H351.72C352.404 305.486 352.958 306.137 352.958 306.94C352.958 307.742 352.404 308.394 351.72 308.394Z" fill="#0B4870"/>
<path d="M351.72 314.789H247.176C246.493 314.789 245.939 314.138 245.939 313.335C245.939 312.532 246.493 311.881 247.176 311.881H351.72C352.404 311.881 352.958 312.532 352.958 313.335C352.958 314.138 352.404 314.789 351.72 314.789Z" fill="#0B4870"/>
<path d="M351.72 321.193H247.176C246.493 321.193 245.939 320.542 245.939 319.739C245.939 318.937 246.493 318.285 247.176 318.285H351.72C352.404 318.285 352.958 318.937 352.958 319.739C352.958 320.542 352.404 321.193 351.72 321.193Z" fill="#0B4870"/>
<path d="M357.011 258.935C358.711 257.516 360.275 255.875 360.996 255.394C361.3 255.197 362.241 254.948 362.506 254.849C363.296 254.573 364.556 254.287 365.102 253.565L367.44 250.55C368.548 249.07 369.998 248.579 371.251 249.881C372.609 251.291 372.207 253.297 370.856 254.725L369.254 256.865C368.177 258.007 367.638 259.612 367.038 261.164C365.823 264.331 363.068 266.712 360.715 268.38C359.235 269.424 356.996 268.684 354.058 267.506C352.616 266.927 350.529 265.526 352.328 264.732C353.838 264.072 358.377 265.508 360.381 260.594C360.48 260.353 360.692 259.711 360.487 259.488C359.88 258.819 358.537 260.335 357.641 260.817C356.381 261.495 355.371 261.263 355.06 260.719C354.726 260.148 355.796 259.951 357.011 258.935Z" fill="#FAB9AF"/>
<path d="M420.893 151.106C420.893 151.106 417.143 203.999 403.685 221.847C395.578 232.604 375.744 251.05 371.152 255.278C370.568 255.813 369.748 255.839 369.141 255.34C368.753 255.019 368.313 254.626 367.934 254.234C367.547 253.833 367.099 253.253 366.696 252.7C366.028 251.781 366.059 250.416 366.757 249.533C371.904 242.96 392.094 216.906 394.554 210.055C397.37 202.197 402.22 155.807 406.676 149.09C411.131 142.356 419.671 140.902 420.893 151.106Z" fill="#FFBE55"/>
<path d="M403.897 238.482L415.374 143.756L446.321 138.761L462.42 237.804L403.897 238.482Z" fill="#FAB9AF"/>
<path d="M427.823 385.271L427.792 395.948C427.785 398.124 428.035 400.283 428.536 402.37L429.326 405.661C429.971 408.364 428.248 411.04 425.857 411.031C419.671 411.004 409.089 411.022 406.364 411.031C405.917 411.031 405.484 410.674 405.446 410.157C405.218 407.044 412.877 404.948 418.653 402.325C423.048 400.328 422.813 391.042 422.274 385.619C422.069 383.568 423.526 381.828 425.272 381.998C426.714 382.14 427.83 383.568 427.823 385.271Z" fill="#FAB9AF"/>
<path d="M470.36 382.274L473.487 394.485C473.624 395.029 473.829 395.538 474.102 396.001L476.319 399.873C477.73 402.334 476.713 405.688 474.299 406.553C474.299 406.553 469.821 408.4 465.214 410.184C460.492 412.003 454.549 410.487 454.549 409.015C454.549 405.759 457.13 408.346 461.456 404.948C462.906 403.806 464.401 402.62 465.737 401.389C469.457 397.955 466.208 389.267 463.931 384.37C463.111 382.613 463.984 380.428 465.654 380.009L466.732 379.741C468.311 379.358 469.889 380.455 470.36 382.274Z" fill="#FAB9AF"/>
<path d="M438.381 239.401L404.08 236.02C404.08 236.02 400.626 265.356 409.294 318.455C413.363 343.358 421.834 390.944 421.834 390.944C423.936 392.023 426.069 392.291 428.24 391.658C428.24 391.658 428.885 370.67 429.28 348.059C429.66 326.384 429.758 303.22 430.935 295.638C433.333 280.154 438.381 239.401 438.381 239.401Z" fill="#0B4870"/>
<path d="M431.299 239.909C427.754 262.244 419.845 295.638 435.087 327.009C450.321 358.379 466.329 390.998 466.329 390.998C468.394 391.096 470.261 390.222 472 388.67C472 388.67 469.328 374.452 465.464 357.844C461.046 338.845 455.452 316.501 457.046 304.852C460.037 283.017 463.468 253.939 462.428 239.811C461.38 225.682 433.159 228.171 431.299 239.909Z" fill="#0B4870"/>
<path d="M402.713 236.074L415.374 143.756L446.328 138.761L462.959 236.243C463.271 238.072 462.261 239.856 460.697 240.203C454.936 241.488 441.038 244.164 425.477 244.164C413.864 244.164 407.336 241.515 404.368 239.829C403.169 239.151 402.501 237.626 402.713 236.074Z" fill="#F2F2F2"/>
<path d="M463.976 271.805C464.447 269.424 464.705 266.971 464.971 266.052C465.085 265.669 465.654 264.75 465.798 264.465C466.238 263.644 467.02 262.449 467.02 261.486L467.081 257.409C467.081 255.438 467.893 253.948 469.563 253.948C471.377 253.948 472.204 255.768 471.992 257.891V260.745C471.825 262.44 472.326 264.063 472.751 265.696C473.616 269.014 472.895 272.938 472.068 276.024C471.552 277.96 469.449 279.146 466.587 280.538C465.183 281.225 462.823 281.795 463.726 279.806C464.485 278.138 468.698 275.694 467.438 270.441C467.377 270.182 467.18 269.531 466.899 269.522C466.064 269.495 465.912 271.672 465.51 272.733C464.948 274.223 464.06 274.829 463.513 274.669C462.944 274.49 463.635 273.509 463.976 271.805Z" fill="#FAB9AF"/>
<path d="M436.658 144.514C436.658 151.168 437.69 157.751 439.618 164.004C443.398 176.232 449.076 199.352 445.698 219.724C440.848 249.061 434.601 260.915 442.693 267.756C450.784 274.588 466.299 263.189 466.747 259.381C467.195 255.581 463.726 208.869 459.802 188.631C455.87 168.392 444.863 139.296 444.863 139.296L440.203 139.885C438.184 140.135 436.658 142.133 436.658 144.514Z" fill="#FFBE55"/>
<path d="M451.201 141.277C451.201 141.277 478.163 183.868 478.11 207.71C478.079 222.079 473.586 251.326 472.523 258.069C472.387 258.926 471.795 259.586 471.051 259.675C470.58 259.737 470.026 259.782 469.525 259.782C469.016 259.782 468.348 259.693 467.734 259.595C466.716 259.425 465.973 258.382 465.995 257.169C466.155 248.24 466.641 213.008 464.622 205.952C462.306 197.862 439.838 159.312 439.398 150.803C438.95 142.302 444.545 134.569 451.201 141.277Z" fill="#FFBE55"/>
<path d="M423.769 142.4C423.769 142.4 418.403 156.029 420.27 175.617C422.145 195.204 426.479 254.849 411.313 263.858C406.509 266.712 395.54 254.082 395.54 249.391C395.54 244.699 399.199 229.018 402.668 214.756C406.137 200.494 414.494 143.89 414.494 143.89L423.769 142.4Z" fill="#FFBE55"/>
<path d="M428.088 100.148C434.996 100.148 437.577 105.928 437.706 116.614C437.759 120.619 436.225 124.579 434.988 127.112C434.07 128.994 433.819 131.224 434.343 133.302L435.861 139.332C436.893 144.924 434.631 148.002 431.292 149.117C429.637 149.67 427.656 149.241 426.214 148.144C424.498 146.842 424.354 144.032 424.673 141.66L425.067 139.938C425.599 137.619 424.453 135.122 422.456 134.613C417.135 133.249 416.376 126.729 414.949 116.614C413.462 106.071 421.181 100.148 428.088 100.148Z" fill="#FAB9AF"/>
<path d="M412.004 95.4566L415.966 96.8748C417.424 97.3922 418.972 97.41 420.437 96.9105L428.346 94.2168C433.136 94.2168 441.053 97.3922 440.051 105.518L439.171 111.262C438.821 113.554 437.189 115.276 435.208 115.472C435.026 116.266 434.411 116.819 433.713 116.819C432.855 116.819 432.165 116.007 432.165 114.999C432.165 112.404 430.616 110.201 428.468 109.63C425.826 108.934 423.01 108.765 420.058 109.701C414.562 111.44 408.763 107.436 408.216 100.773C408.179 100.353 408.163 99.9253 408.163 99.4883C408.156 96.7946 410.046 94.8233 412.004 95.4566Z" fill="#0B4870"/>
<path d="M433.903 116.81C433.903 119.29 434.685 121.297 436.719 121.297C438.753 121.297 440.051 117.889 440.051 115.41C440.051 112.93 438.745 112.323 436.719 112.323C434.685 112.323 433.903 114.339 433.903 116.81Z" fill="#FAB9AF"/>
<path d="M434.738 127.692C434.738 127.692 429.576 136.023 423.162 134.899C423.162 134.899 424.498 135.648 424.817 136.861C424.817 136.861 430.912 136.335 434.738 127.692Z" fill="#E8948B"/>
<path d="M448.423 11.5231C448.423 17.3119 445.175 22.0125 441.159 22.0125H355.03C351.022 22.0125 347.766 17.3208 347.766 11.5231C347.766 5.73431 351.014 1.03369 355.03 1.03369H441.159C445.175 1.04261 448.423 5.73431 448.423 11.5231Z" fill="#F2F2F2"/>
<path d="M140.12 67.681C140.12 73.4698 136.127 78.1705 131.193 78.1705H25.3664C20.4401 78.1705 16.4399 73.4788 16.4399 67.681C16.4399 61.8922 20.4325 57.1917 25.3664 57.1917H131.201C136.127 57.1917 140.12 61.8833 140.12 67.681Z" fill="#F2F2F2"/>
<path d="M183.386 11.4877C183.386 17.2765 180.076 21.9771 176 21.9771H88.4283C84.3522 21.9771 81.0427 17.2854 81.0427 11.4877C81.0427 5.69889 84.3522 0.998291 88.4283 0.998291H176C180.076 0.998291 183.386 5.68997 183.386 11.4877Z" fill="#F2F2F2"/>
<path d="M542.713 56.9418C542.713 62.7306 538.72 67.4312 533.786 67.4312H427.959C423.033 67.4312 419.033 62.7395 419.033 56.9418C419.033 51.153 423.026 46.4524 427.959 46.4524H533.794C538.72 46.4613 542.713 51.153 542.713 56.9418Z" fill="#F2F2F2"/>
</svg>
